<svg id="modHorizontal" xmlns="http://www.w3.org/2000/svg" viewBox="0 0 1462.48 343.06"><defs><style>.cls-1{fill:#191918;}.cls-2{fill:#f9c138;}</style></defs><title>Halister_horizontal</title><path class="cls-1" d="M1685.1,707.41a49.06,49.06,0,0,1,9-.75c5,0,8.21.91,10.46,3a9,9,0,0,1,2.84,6.87,9.5,9.5,0,0,1-6.81,9.23v.16c2.79,1,4.45,3.54,5.31,7.29,1.18,5.05,2,8.54,2.79,9.93h-4.83c-.59-1-1.39-4.13-2.41-8.64-1.08-5-3-6.87-7.25-7h-4.4v15.67h-4.67Zm4.67,16.47h4.78c5,0,8.15-2.73,8.15-6.87,0-4.67-3.38-6.7-8.31-6.76a19.45,19.45,0,0,0-4.62.43Z" transform="translate(-268.76 -688.99)"/><path class="cls-1" d="M1695.36,760.76a35.89,35.89,0,1,1,35.88-35.89A35.92,35.92,0,0,1,1695.36,760.76Zm0-63.09a27.21,27.21,0,1,0,27.2,27.2A27.24,27.24,0,0,0,1695.36,697.67Z" transform="translate(-268.76 -688.99)"/><path class="cls-1" d="M1685.1,707.41a49.06,49.06,0,0,1,9-.75c5,0,8.21.91,10.46,3a9,9,0,0,1,2.84,6.87,9.5,9.5,0,0,1-6.81,9.23v.16c2.79,1,4.45,3.54,5.31,7.29,1.18,5.05,2,8.54,2.79,9.93h-4.83c-.59-1-1.39-4.13-2.41-8.64-1.08-5-3-6.87-7.25-7h-4.4v15.67h-4.67Zm4.67,16.47h4.78c5,0,8.15-2.73,8.15-6.87,0-4.67-3.38-6.7-8.31-6.76a19.45,19.45,0,0,0-4.62.43Z" transform="translate(-268.76 -688.99)"/><path class="cls-1" d="M1695.36,760.76a35.89,35.89,0,1,1,35.88-35.89A35.92,35.92,0,0,1,1695.36,760.76Zm0-63.09a27.21,27.21,0,1,0,27.2,27.2A27.24,27.24,0,0,0,1695.36,697.67Z" transform="translate(-268.76 -688.99)"/><path class="cls-1" d="M507.54,761.86l-19,64.48h57.48L565,761.86h47.58L559.36,943H511.79l20.29-69.07H474.61L454.31,943H406.74L460,761.86Z" transform="translate(-268.76 -688.99)"/><path class="cls-1" d="M583.74,943,721.48,761.86H743L775,943H727.42l-4.15-23.67H649.13L631.31,943Zm95.77-63.76h37l-6.65-39.84Z" transform="translate(-268.76 -688.99)"/><path class="cls-1" d="M852.36,761.86h47.57l-39.17,133.3H926L911.91,943H799.13Z" transform="translate(-268.76 -688.99)"/><path class="cls-1" d="M998.93,761.86h47.57L993.28,943H945.7Z" transform="translate(-268.76 -688.99)"/><path class="cls-1" d="M1133.28,817.4c2.2-7.48-2.23-13.76-9.72-13.76s-15.36,6.28-17.56,13.76,2.06,13.53,9.55,13.53c17.63,0,31.08,8.45,37.39,21.49,4.89,9.66,5.69,21.73,1.78,35-9.08,30.91-41.19,55.55-72.1,55.55s-48.62-24.39-39.25-56.27h42.26c-2.27,7.73,2,13.76,9.48,13.76s15.54-6,17.74-13.52-2.24-13.76-9.72-13.76c-30.91,0-48.31-24.63-39.22-55.54s41-55.79,71.93-55.79,48.55,24.63,39.46,55.54Z" transform="translate(-268.76 -688.99)"/><path class="cls-1" d="M1221.63,761.62h142.72L1350.44,809h-48L1263,943h-47.57l39.38-134h-47.09Z" transform="translate(-268.76 -688.99)"/><path class="cls-1" d="M1397.11,761.86h112.54l-11.57,39.36h-65l-8.66,29.46h57.47l-11.78,40.09h-57.47l-9.79,33.33h65L1456.42,943H1343.89Z" transform="translate(-268.76 -688.99)"/><path class="cls-1" d="M1595.51,943l-13.89-48.06h-29.46L1538,943h-47.57l53.23-181.12H1620c36.71,0,57.86,29.95,47.07,66.65-5.68,19.32-19.24,36.71-35.83,48.78L1650.32,943Zm-31.29-89.11h29.46c14.49,0,29.42-11.35,33.68-25.84S1623.43,802,1608.94,802h-29.46Z" transform="translate(-268.76 -688.99)"/><polygon class="cls-2" points="64.2 343.06 0 343.06 80.75 71.76 144.95 71.76 64.2 343.06"/><polygon class="cls-2" points="0 343.06 19.97 278.86 1388.06 278.86 1388.06 294.66 900.13 343.06 0 343.06"/></svg>