<svg id="modVertical" xmlns="http://www.w3.org/2000/svg" viewBox="0 0 1528.21 941.86"><defs><style>.cls-1{fill:#191918;}.cls-2{fill:#f9c138;}</style></defs><title>Halister</title><path class="cls-1" d="M953.64,475.56V641.88h161.22V475.56h97.77V908h-97.77V727H953.64V908H855.87V475.56Z" transform="translate(-286.55 -475.56)"/><polygon class="cls-2" points="541 454.98 541 0 480.28 0.04 480.28 516.86 498.4 516.86 498.4 516.86 781.28 516.86 934.62 470.21 934.62 454.98 541 454.98"/><path class="cls-1" d="M400.42,1093.29,379,1167.1h64.93l21.4-73.81h53.74L459,1300.61H405.22l22.93-79.06H363.22l-22.93,79.06H286.55l60.13-207.32Z" transform="translate(-286.55 -475.56)"/><path class="cls-1" d="M486.5,1300.61l155.6-207.32h24.28l36.17,207.32H648.81l-4.69-27.09H560.37l-20.13,27.09Zm108.18-73h41.74L628.91,1182Z" transform="translate(-286.55 -475.56)"/><path class="cls-1" d="M789.94,1093.29h53.74l-44.25,152.59h73.65l-15.87,54.73H729.82Z" transform="translate(-286.55 -475.56)"/><path class="cls-1" d="M955.51,1093.29h53.74l-60.12,207.32H895.39Z" transform="translate(-286.55 -475.56)"/><path class="cls-1" d="M1107.29,1156.87c2.48-8.57-2.52-15.76-11-15.76s-17.36,7.19-19.85,15.76,2.33,15.48,10.79,15.48c19.92,0,35.11,9.67,42.24,24.6,5.52,11.06,6.43,24.88,2,40.08-10.27,35.39-46.54,63.58-81.46,63.58s-54.91-27.92-44.33-64.4h47.74c-2.57,8.84,2.25,15.75,10.7,15.75s17.56-6.91,20-15.48-2.52-15.76-11-15.76c-34.92,0-54.56-28.19-44.3-63.58s46.34-63.85,81.26-63.85,54.84,28.19,44.57,63.58Z" transform="translate(-286.55 -475.56)"/><path class="cls-1" d="M1207.09,1093h161.22l-15.71,54.18h-54.29l-44.49,153.42h-53.74l44.49-153.42h-53.19Z" transform="translate(-286.55 -475.56)"/><path class="cls-1" d="M1405.32,1093.29h127.12l-13.06,45.06H1446l-9.78,33.72h64.92L1487.83,1218h-64.92l-11.07,38.15h73.38l-12.9,44.5H1345.2Z" transform="translate(-286.55 -475.56)"/><path class="cls-1" d="M1629.44,1300.61l-15.69-55h-33.28l-16,55h-53.74l60.13-207.32h86.2c41.46,0,65.35,34.28,53.16,76.29-6.41,22.12-21.73,42-40.47,55.84l21.57,75.19Zm-35.35-102h33.29c16.36,0,33.23-13,38-29.58s-4.44-29.85-20.81-29.85h-33.28Z" transform="translate(-286.55 -475.56)"/><rect class="cls-2" y="858.62" width="1426.9" height="83.24"/><path class="cls-1" d="M711.23,1402.75l-17-52h7.3l8.07,25.62c2.23,7,4.16,13.34,5.56,19.39h.18c1.45-6,3.59-12.54,5.92-19.31l8.79-25.7h7.17l-18.56,52Z" transform="translate(-286.55 -475.56)"/><path class="cls-1" d="M743.85,1385.33c.13,9.16,5.95,12.94,12.76,12.94a25,25,0,0,0,10.32-1.91l1.19,4.82a30.09,30.09,0,0,1-12.44,2.38c-11.46,0-18.35-7.64-18.35-18.82s6.66-20.13,17.55-20.13c12.16,0,15.35,10.67,15.35,17.54a16.51,16.51,0,0,1-.24,3.18Zm19.84-4.88c.07-4.27-1.75-11-9.35-11-6.92,0-9.87,6.26-10.41,11Z" transform="translate(-286.55 -475.56)"/><path class="cls-1" d="M792.42,1349.28l-9.42,11h-4.8l6.76-11Zm-13.74,53.47v-37.29h6.74v37.29Z" transform="translate(-286.55 -475.56)"/><path class="cls-1" d="M823.31,1401.4a25.84,25.84,0,0,1-10.7,2.16c-11.25,0-18.61-7.65-18.61-19.06s7.84-19.88,20-19.88a21.94,21.94,0,0,1,9.43,2l-1.51,5.21A16.41,16.41,0,0,0,814,1370c-8.51,0-13.17,6.38-13.15,14.13,0,8.64,5.55,13.95,13,13.95a19.71,19.71,0,0,0,8.3-1.79Z" transform="translate(-286.55 -475.56)"/><path class="cls-1" d="M862.51,1392.54c0,3.91.13,7.26.31,10.21h-6l-.36-6.1h-.19a13.93,13.93,0,0,1-12.34,6.95c-5.84,0-12.85-3.28-12.85-16.35v-21.79h6.75v20.6c0,7.1,2.21,11.94,8.34,11.94a9.87,9.87,0,0,0,9-6.22,10.49,10.49,0,0,0,.62-3.48v-22.84h6.74Z" transform="translate(-286.55 -475.56)"/><path class="cls-1" d="M873.81,1348h6.75v54.75h-6.75Z" transform="translate(-286.55 -475.56)"/><path class="cls-1" d="M925.76,1383.74c0,13.82-9.58,19.86-18.54,19.86-10.12,0-17.93-7.37-17.93-19.21,0-12.48,8.2-19.78,18.52-19.78C918.53,1364.61,925.76,1372.39,925.76,1383.74Zm-29.57.44c0,8.18,4.69,14.34,11.31,14.34s11.36-6.08,11.36-14.54c0-6.31-3.18-14.29-11.24-14.29S896.19,1377.11,896.19,1384.18Z" transform="translate(-286.55 -475.56)"/><path class="cls-1" d="M933.37,1395.84a18.46,18.46,0,0,0,9,2.66c4.95,0,7.25-2.43,7.25-5.55s-2-5-6.93-6.83c-6.74-2.44-9.93-6.11-9.91-10.57,0-6,4.88-10.94,12.9-10.94a18.1,18.1,0,0,1,9.13,2.29l-1.68,4.93a14.69,14.69,0,0,0-7.65-2.19c-4,0-6.18,2.31-6.18,5.12,0,3.08,2.19,4.46,7.08,6.36,6.43,2.39,9.77,5.63,9.78,11.2,0,6.61-5.13,11.24-13.94,11.24a21.29,21.29,0,0,1-10.48-2.6Z" transform="translate(-286.55 -475.56)"/><path class="cls-1" d="M988.15,1350.78v52h-6.74v-52Z" transform="translate(-286.55 -475.56)"/><path class="cls-1" d="M1000.41,1375.53c0-3.89-.13-7-.31-10.07h6l.37,6.13h.19a13.77,13.77,0,0,1,12.33-7c5.12,0,13.14,3.08,13.14,15.89v22.25h-6.74v-21.5c0-6-2.28-11.08-8.62-11.08a9.76,9.76,0,0,0-9.14,7,10.6,10.6,0,0,0-.47,3.15v22.47h-6.74Z" transform="translate(-286.55 -475.56)"/><path class="cls-1" d="M1075.38,1348v45.13c0,3.32.12,7,.31,9.62h-6l-.35-6.45h-.18c-2.07,4.17-6.56,7.3-12.65,7.3-9,0-16-7.64-16-18.95-.06-12.46,7.67-20,16.75-20,5.73,0,9.58,2.68,11.25,5.66h.16V1348Zm-6.74,32.63a13.65,13.65,0,0,0-.29-2.9,10,10,0,0,0-9.82-7.8c-7,0-11.22,6.16-11.22,14.35,0,7.58,3.77,13.86,11.08,13.86a10.23,10.23,0,0,0,9.91-8.14,11.07,11.07,0,0,0,.34-2.91Z" transform="translate(-286.55 -475.56)"/><path class="cls-1" d="M1117.86,1392.54c0,3.91.13,7.26.31,10.21h-6l-.36-6.1h-.19a13.92,13.92,0,0,1-12.34,6.95c-5.83,0-12.84-3.28-12.84-16.35v-21.79h6.75v20.6c0,7.1,2.21,11.94,8.33,11.94a9.87,9.87,0,0,0,9-6.22,10.24,10.24,0,0,0,.62-3.48v-22.84h6.75Z" transform="translate(-286.55 -475.56)"/><path class="cls-1" d="M1128.2,1395.84a18.43,18.43,0,0,0,9,2.66c5,0,7.24-2.43,7.24-5.55s-2-5-6.93-6.83c-6.73-2.44-9.92-6.11-9.91-10.57,0-6,4.88-10.94,12.9-10.94a18.15,18.15,0,0,1,9.14,2.29l-1.69,4.93a14.66,14.66,0,0,0-7.65-2.19c-4,0-6.18,2.31-6.18,5.12,0,3.08,2.2,4.46,7.09,6.36,6.42,2.39,9.76,5.63,9.78,11.2,0,6.61-5.14,11.24-14,11.24a21.32,21.32,0,0,1-10.48-2.6Z" transform="translate(-286.55 -475.56)"/><path class="cls-1" d="M1167.83,1354.72v10.74h9.74v5.14h-9.74v20.09c0,4.65,1.33,7.27,5.13,7.27a13.41,13.41,0,0,0,3.93-.49l.31,5.15a17.29,17.29,0,0,1-6.06.94,9.48,9.48,0,0,1-7.32-2.87c-1.87-2.06-2.64-5.35-2.64-9.73V1370.6h-5.77v-5.14h5.77v-9Z" transform="translate(-286.55 -475.56)"/><path class="cls-1" d="M1185.19,1377.07c0-4.4-.11-8.15-.3-11.61h5.94l.26,7.31h.24c1.74-5,5.85-8.16,10.38-8.16a8,8,0,0,1,1.89.19v6.38a11.16,11.16,0,0,0-2.31-.2c-4.78,0-8.15,3.61-9.08,8.68a18.42,18.42,0,0,0-.27,3.16v19.93h-6.75Z" transform="translate(-286.55 -475.56)"/><path class="cls-1" d="M1218.3,1354.92a4.2,4.2,0,1,1-4.19-4.22A4.08,4.08,0,0,1,1218.3,1354.92Zm-7.57,47.83v-37.29h6.74v37.29Z" transform="translate(-286.55 -475.56)"/><path class="cls-1" d="M1249.44,1402.75l-.6-4.71h-.2a13.88,13.88,0,0,1-11.41,5.56c-7.53,0-11.39-5.35-11.39-10.7,0-9,8-14,22.41-13.9v-.79c0-3-.85-8.64-8.49-8.6a18.15,18.15,0,0,0-9.71,2.78l-1.54-4.51a23.47,23.47,0,0,1,12.31-3.27c11.4,0,14.17,7.79,14.17,15.26v14a58.05,58.05,0,0,0,.57,8.93Zm-1-19c-7.34-.16-15.74,1.16-15.74,8.37,0,4.45,2.92,6.49,6.33,6.49a9.32,9.32,0,0,0,9.08-6.24,6.93,6.93,0,0,0,.33-2.14Z" transform="translate(-286.55 -475.56)"/><path class="cls-1" d="M1273.5,1354.92a4.2,4.2,0,1,1-4.19-4.22A4.08,4.08,0,0,1,1273.5,1354.92Zm-7.57,47.83v-37.29h6.74v37.29Z" transform="translate(-286.55 -475.56)"/><path class="cls-1" d="M1283,1395.84a18.43,18.43,0,0,0,9,2.66c5,0,7.24-2.43,7.24-5.55s-2-5-6.93-6.83c-6.73-2.44-9.92-6.11-9.91-10.57,0-6,4.88-10.94,12.9-10.94a18.15,18.15,0,0,1,9.14,2.29l-1.69,4.93a14.66,14.66,0,0,0-7.65-2.19c-4,0-6.18,2.31-6.18,5.12,0,3.08,2.2,4.46,7.08,6.36,6.43,2.39,9.77,5.63,9.79,11.2,0,6.61-5.14,11.24-14,11.24a21.32,21.32,0,0,1-10.48-2.6Z" transform="translate(-286.55 -475.56)"/><path class="cls-1" d="M1764.09,1032.05a53.49,53.49,0,0,1,9.84-.83c5.48,0,9,1,11.5,3.24a9.91,9.91,0,0,1,3.12,7.55,10.42,10.42,0,0,1-7.49,10.13v.18c3.07,1.06,4.9,3.89,5.84,8,1.3,5.54,2.24,9.37,3.06,10.91h-5.3c-.65-1.12-1.53-4.54-2.65-9.49-1.18-5.48-3.3-7.55-8-7.72h-4.83v17.21h-5.13Zm5.13,18.09h5.24c5.48,0,9-3,9-7.54,0-5.13-3.71-7.37-9.13-7.43a21.38,21.38,0,0,0-5.07.47Z" transform="translate(-286.55 -475.56)"/><path class="cls-1" d="M1775.35,1090.63a39.41,39.41,0,1,1,39.41-39.4A39.44,39.44,0,0,1,1775.35,1090.63Zm0-69.28a29.88,29.88,0,1,0,29.88,29.88A29.91,29.91,0,0,0,1775.35,1021.35Z" transform="translate(-286.55 -475.56)"/><path class="cls-1" d="M1764.09,1032.05a53.49,53.49,0,0,1,9.84-.83c5.48,0,9,1,11.5,3.24a9.91,9.91,0,0,1,3.12,7.55,10.42,10.42,0,0,1-7.49,10.13v.18c3.07,1.06,4.9,3.89,5.84,8,1.3,5.54,2.24,9.37,3.06,10.91h-5.3c-.65-1.12-1.53-4.54-2.65-9.49-1.18-5.48-3.3-7.55-8-7.72h-4.83v17.21h-5.13Zm5.13,18.09h5.24c5.48,0,9-3,9-7.54,0-5.13-3.71-7.37-9.13-7.43a21.38,21.38,0,0,0-5.07.47Z" transform="translate(-286.55 -475.56)"/></svg>