<svg
   xmlns="http://www.w3.org/2000/svg"
   width="540"
   height="126">
  <g
     transform="matrix(0.99881494,0,0,0.99481561,-1.2662682e-7,-165.51205)"
     id="g4560"
     class="--animated">
    <path
       class="--line  --light"
       id="path4531"
       d="m 76.465945,202.86739 -15.782333,54.90095 9.686554,-33.65466 38.864794,1.25807 -9.308584,32.11033 15.690614,-54.67954"
       style="fill:none;stroke:#960000;stroke-width:16.35124969;stroke-linecap:square;stroke-linejoin:miter;stroke-miterlimit:4;stroke-dasharray:none;stroke-opacity:1;paint-order:fill markers stroke" />
    <path
       class="--line  --light"
       id="path4533"
       d="m 132.6361,248.91277 36.49965,-45.16529 9.71899,54.74439 -2.92654,-15.79346 -26.80197,0.50212"
       style="fill:none;stroke:#960000;stroke-width:16.35124969;stroke-linecap:square;stroke-linejoin:miter;stroke-miterlimit:4;stroke-dasharray:none;stroke-opacity:1;paint-order:fill markers stroke" />
    <path
       class="--line  --light"
       id="path4535"
       d="m 221.57986,203.15366 -13.5469,48.09738 21.9374,-0.18899"
       style="fill:none;stroke:#960000;stroke-width:16.35124969;stroke-linecap:square;stroke-linejoin:miter;stroke-miterlimit:4;stroke-dasharray:none;stroke-opacity:1;paint-order:fill markers stroke" />
    <path
       class="--line  --light"
       id="path4537"
       d="m 278.7811,195.1513 -18.46058,62.20108"
       style="fill:none;stroke:#960000;stroke-width:16.35124969;stroke-linecap:butt;stroke-linejoin:miter;stroke-miterlimit:4;stroke-dasharray:none;stroke-opacity:1" />
    <path
       class="--line  --light"
       id="path4539"
       d="m 328.27182,213.02363 c 0,-9.07143 -0.50768,-12.69924 -12.13783,-12.71593 -11.06318,-0.39466 -16.4197,16.53273 -13.96285,22.39136 13.7344,6.9304 19.56209,-0.0278 20.28005,16.63556 0.13232,15.38365 -28.74392,21.41864 -28.63813,-0.10284"
       style="fill:none;stroke:#960000;stroke-width:16.35124969;stroke-linecap:butt;stroke-linejoin:miter;stroke-miterlimit:4;stroke-dasharray:none;stroke-opacity:1" />
    <path
       class="--line  --light"
       id="path4541"
       d="m 353.13576,201.66304 47.36369,-0.28069 -24.21081,0.4104 -15.91762,56.06731"
       style="fill:none;stroke:#960000;stroke-width:16.35124969;stroke-linecap:butt;stroke-linejoin:miter;stroke-miterlimit:4;stroke-dasharray:none;stroke-opacity:1" />
    <path
       class="--line  --light"
       id="path4545"
       d="m 455.43283,199.40075 -31.32196,0.56697 -15.36117,51.78006 31.14908,0.56677 -31.14908,-0.56677 8.32045,-26.34361 28.46028,0.62626"
       style="fill:none;stroke:#960000;stroke-width:16.35124969;stroke-linecap:butt;stroke-linejoin:miter;stroke-miterlimit:4;stroke-dasharray:none;stroke-opacity:1" />
    <path
       class="--line  --light"
       id="path4547"
       d="m 462.06315,257.70349 16.25757,-57.13638 c 45.01057,-9.41059 41.4551,33.51635 0.6587,33.57311 6.35026,3.68689 22.1414,13.72463 22.63963,25.73386"
       style="fill:none;stroke:#960000;stroke-width:16.35124969;stroke-linecap:butt;stroke-linejoin:miter;stroke-miterlimit:4;stroke-dasharray:none;stroke-opacity:1;image-rendering:optimizeQuality" />
    <path
       class="--line"
       id="path4549"
       d="M 38.681364,203.09897 15.944459,280.95825 503.13649,280.42927"
       style="fill:none;stroke:#960000;stroke-width:22.75416756;stroke-linecap:square;stroke-linejoin:miter;stroke-miterlimit:4;stroke-dasharray:none;stroke-opacity:1;paint-order:fill markers stroke" />
  </g>
  <g
     id="g4640"
     transform="matrix(0.99881494,0,0,0.99481561,-0.65223284,-165.04183)"
     class="--fixed">
    <path
       id="path4562"
       d="m 51.669288,259.06391 c 0.141459,-0.37475 4.559845,-15.30803 9.818637,-33.18508 5.258789,-17.87704 9.674275,-32.61656 9.812189,-32.75447 0.137917,-0.13792 3.984712,-0.18434 8.548439,-0.10317 l 8.297682,0.14759 -3.399083,11.49259 c -1.869496,6.32093 -3.404759,11.673 -3.411696,11.8935 -0.0069,0.22049 4.881115,0.4009 10.862339,0.4009 h 10.874955 l 3.35481,-11.62622 c 1.84514,-6.39443 3.52455,-11.81296 3.73201,-12.04118 0.20746,-0.22822 4.10191,-0.34849 8.65434,-0.26727 l 8.27714,0.14768 -9.72649,33.14142 -9.72649,33.14143 -8.602312,0.14682 c -6.786997,0.11583 -8.552418,0.003 -8.365863,-0.53454 0.491175,-1.41537 7.223659,-24.45884 7.223659,-24.72463 0,-0.15304 -4.893204,-0.27826 -10.873785,-0.27826 H 76.145982 l -3.725934,12.6953 -3.725934,12.69531 -8.641014,0.14682 c -6.826827,0.11599 -8.587012,0.004 -8.383812,-0.53454 z"
       style="fill:#ffffff;fill-opacity:1;stroke:none;stroke-width:45.97035599;stroke-linecap:square;stroke-linejoin:miter;stroke-miterlimit:4;stroke-dasharray:none;stroke-opacity:1;paint-order:fill markers stroke"
       class="--shape --light" />
    <path
       id="path4564"
       d="m 117.6715,259.41232 c 0,-0.16861 11.32471,-15.21267 25.16604,-33.43124 l 25.16603,-33.12468 3.80781,0.15619 3.80782,0.15619 5.74445,32.33962 c 3.15946,17.78678 5.75649,32.76056 5.77119,33.27505 0.0244,0.85253 -0.7213,0.93544 -8.41225,0.93544 h -8.43899 l -0.78181,-4.40994 -0.78181,-4.40995 -13.89802,-0.11751 -13.89801,-0.11751 -3.35088,4.52745 -3.35089,4.52746 h -8.27534 c -4.55144,0 -8.27534,-0.13795 -8.27534,-0.30657 z m 48.47719,-24.41586 c -0.15496,-0.66149 -0.69601,-3.84868 -1.20231,-7.08264 -0.50631,-3.23396 -1.08678,-6.068 -1.28994,-6.29786 -0.32827,-0.37144 -11.2399,13.47781 -11.2399,14.26591 0,0.17452 3.15313,0.31731 7.00695,0.31731 6.9936,0 7.00642,-0.002 6.7252,-1.20272 z"
       style="fill:#ffffff;fill-opacity:1;stroke:none;stroke-width:45.97035599;stroke-linecap:square;stroke-linejoin:miter;stroke-miterlimit:4;stroke-dasharray:none;stroke-opacity:1;paint-order:fill markers stroke"
       class="--shape --light" />
    <path
       id="path4566"
       d="m 200.28941,248.0989 c 1.86731,-6.39785 6.25501,-21.37443 9.75043,-33.28129 l 6.3553,-21.64883 8.61244,-0.14676 8.61243,-0.14676 -0.48957,1.48311 c -0.26927,0.81571 -3.39824,11.46563 -6.95327,23.66648 -3.55503,12.20085 -6.5878,22.60432 -6.73949,23.11881 -0.25693,0.87142 0.54992,0.93545 11.78734,0.93545 6.63474,0 12.05548,0.0601 12.0461,0.13363 -0.009,0.0735 -1.16632,3.98232 -2.57096,8.68626 l -2.55391,8.55263 -20.62598,0.13986 -20.62599,0.13986 z"
       style="fill:#ffffff;fill-opacity:1;stroke:none;stroke-width:45.97035599;stroke-linecap:square;stroke-linejoin:miter;stroke-miterlimit:4;stroke-dasharray:none;stroke-opacity:1;paint-order:fill markers stroke"
       class="--shape --light" />
    <path
       id="path4568"
       d="m 251.42342,259.05072 c 0.12734,-0.36749 4.53535,-15.40141 9.79558,-33.40869 l 9.56405,-32.74051 h 8.49389 8.49386 l -0.36782,1.46998 c -0.2023,0.80849 -4.55814,15.73577 -9.67965,33.17174 -5.12151,17.43597 -9.31182,31.80839 -9.31182,31.93871 0,0.13032 -3.87442,0.23694 -8.60981,0.23694 -6.65498,0 -8.55725,-0.1517 -8.37828,-0.66817 z"
       style="fill:#ffffff;fill-opacity:1;stroke:none;stroke-width:45.97035599;stroke-linecap:square;stroke-linejoin:miter;stroke-miterlimit:4;stroke-dasharray:none;stroke-opacity:1;paint-order:fill markers stroke"
       class="--shape --light" />
    <path
       id="path4570"
       d="m 296.77214,258.86636 c -4.52623,-1.21665 -8.18065,-4.54194 -9.57794,-8.7153 -0.64376,-1.92271 -0.83159,-8.4719 -0.2839,-9.89912 0.27432,-0.71487 1.47206,-0.84553 7.75081,-0.84553 6.89102,0 7.42635,0.0719 7.42635,0.99699 0,1.81265 2.05825,3.81386 3.92256,3.81386 2.42382,0 5.18533,-1.64778 6.32602,-3.77473 2.21584,-4.13164 0.76727,-6.23943 -4.76541,-6.93414 -5.97397,-0.75012 -9.58535,-3.05879 -12.085,-7.72572 -0.93228,-1.74059 -1.14856,-3.05247 -1.14676,-6.95601 0.003,-4.46151 0.1492,-5.11899 2.02608,-9.05435 3.71025,-7.77959 11.83494,-14.38618 20.08349,-16.33093 5.86912,-1.38375 12.45102,0.16194 16.06079,3.7717 2.69822,2.69823 3.76451,5.48547 3.7697,9.85372 0.008,6.54398 0.52811,6.1472 -8.06138,6.1472 h -7.42122 v -1.56482 c 0,-1.87465 -2.12703,-3.78156 -4.21476,-3.77857 -3.24133,0.005 -6.68983,3.51916 -6.68983,6.81794 0,2.50348 1.69437,3.87084 4.79656,3.87084 3.37132,0 7.71075,1.80588 9.94634,4.13924 3.31169,3.4565 3.9125,5.12356 3.9125,10.85557 0,4.85747 -0.10173,5.31253 -2.09134,9.35444 -3.82289,7.76626 -11.58664,14.09659 -19.60721,15.98718 -4.19619,0.98911 -6.31011,0.98293 -10.07645,-0.0294 z"
       style="fill:#ffffff;fill-opacity:1;stroke:none;stroke-width:45.97035599;stroke-linecap:square;stroke-linejoin:miter;stroke-miterlimit:4;stroke-dasharray:none;stroke-opacity:1;paint-order:fill markers stroke"
       class="--shape --light" />
    <path
       id="path4572"
       d="m 351.27356,259.31799 c 0.005,-0.2205 3.22072,-11.34559 7.14674,-24.72243 l 7.13822,-24.32153 -8.64598,-0.26727 -8.646,-0.26726 2.4461,-8.28536 2.44612,-8.28536 26.04736,-0.13872 c 20.66705,-0.11006 26.04384,2.7e-4 26.03024,0.53454 -0.01,0.3703 -1.05894,4.16113 -2.33228,8.42408 l -2.31513,7.75082 -8.98202,0.26726 -8.982,0.26727 -7.21891,24.72243 -7.2189,24.72243 h -8.46103 c -4.65357,0 -8.45719,-0.1804 -8.45253,-0.4009 z"
       style="fill:#ffffff;fill-opacity:1;stroke:none;stroke-width:45.97035599;stroke-linecap:square;stroke-linejoin:miter;stroke-miterlimit:4;stroke-dasharray:none;stroke-opacity:1;paint-order:fill markers stroke"
       class="--shape --light" />
    <path
       id="path4574"
       d="m 398.96557,258.78345 c 0.1382,-0.51449 4.54134,-15.5484 9.78477,-33.40869 l 9.53352,-32.47324 h 20.54138 c 19.30701,0 20.52561,0.0562 20.27851,0.93544 -0.14459,0.51449 -1.04968,3.63712 -2.01134,6.93917 l -1.74844,6.00373 -12.07654,0.14347 -12.07656,0.14347 -1.44269,4.81085 c -2.2161,7.38982 -3.16074,6.68174 8.91402,6.68174 5.73294,0 10.41964,0.0601 10.41493,0.13363 -0.005,0.0735 -0.9312,3.26069 -2.05886,7.08265 l -2.05028,6.949 -10.70398,0.1445 -10.70399,0.14449 -1.67277,5.73543 c -0.92004,3.1545 -1.6714,6.03612 -1.66971,6.40362 0.003,0.51419 2.71304,0.66817 11.76293,0.66817 6.46792,0 11.75985,0.14698 11.75985,0.32661 0,0.17964 -0.88289,3.3067 -1.96196,6.94901 l -1.96197,6.62239 h -20.551 c -19.31178,0 -20.53588,-0.0564 -20.29982,-0.93544 z"
       style="fill:#ffffff;fill-opacity:1;stroke:none;stroke-width:45.97035599;stroke-linecap:square;stroke-linejoin:miter;stroke-miterlimit:4;stroke-dasharray:none;stroke-opacity:1;paint-order:fill markers stroke"
       class="--shape --light" />
    <path
       id="path4576"
       d="m 455.88332,249.70927 c 1.6206,-5.51958 6.01462,-20.49919 9.76448,-33.28804 l 6.81791,-23.25245 h 16.77421 16.77419 l 2.93997,1.39665 c 13.38956,6.36077 13.08158,24.14899 -0.64913,37.49325 l -3.71488,3.61032 3.44749,11.89131 3.4475,11.89132 -9.62758,0.14598 c -5.29516,0.0803 -9.75408,0.0195 -9.9087,-0.13511 -0.15459,-0.15461 -1.41221,-4.18926 -2.79471,-8.96589 l -2.5136,-8.68477 -5.65324,-0.15144 -5.65322,-0.15143 -1.06694,3.62594 c -0.58682,1.99426 -1.77323,6.03136 -2.63649,8.97133 l -1.56959,5.34539 -8.56213,0.14661 -8.5621,0.14661 z m 38.43089,-23.38702 c 8.77596,-2.60618 12.91706,-13.98337 6.52031,-17.91383 -1.57633,-0.96859 -2.52068,-1.07193 -8.6546,-0.94715 l -6.8852,0.14007 -2.51404,8.55262 c -1.38269,4.70395 -2.69047,9.09385 -2.90616,9.75534 -0.39119,1.1998 -0.37737,1.20271 5.69407,1.20271 3.81236,0 7.07978,-0.29506 8.74562,-0.78976 z"
       style="fill:#ffffff;fill-opacity:1;stroke:none;stroke-width:45.97035599;stroke-linecap:square;stroke-linejoin:miter;stroke-miterlimit:4;stroke-dasharray:none;stroke-opacity:1;paint-order:fill markers stroke"
       class="--shape --light" />
    <path
       id="path4578"
       d="m 523.61237,191.07423 c -2.42319,-1.05513 -5.4878,-3.93191 -6.68168,-6.27212 -4.92242,-9.64871 3.62966,-20.82335 14.24911,-18.61876 3.59714,0.74676 6.6961,2.99661 8.60816,6.24951 1.26392,2.15021 1.50574,3.16252 1.50574,6.30337 0,5.60989 -2.6458,9.88647 -7.48355,12.09612 -2.54524,1.16254 -7.79735,1.28711 -10.19778,0.24188 z m 9.15082,-2.91924 c 9.94598,-4.51784 6.73373,-19.3841 -4.18846,-19.3841 -3.29266,0 -5.30457,0.84407 -7.39457,3.10224 -2.6216,2.83256 -3.47821,6.00764 -2.55622,9.47454 1.67788,6.30905 8.25987,9.47794 14.13925,6.80732 z"
       style="fill:#ffffff;fill-opacity:1;stroke:none;stroke-width:45.97035599;stroke-linecap:square;stroke-linejoin:miter;stroke-miterlimit:4;stroke-dasharray:none;stroke-opacity:1;paint-order:fill markers stroke"
       class="--shape --light" />
    <path
       id="path4580"
       d="m 524.88271,185.54134 c -0.0175,-0.0173 -0.0315,-2.94946 -0.0315,-6.51587 v -6.48438 l 0.20079,-0.0954 c 0.16044,-0.0762 0.33377,-0.10053 0.86225,-0.12097 0.3638,-0.0141 0.8528,-0.0502 1.0867,-0.0802 0.56565,-0.0727 1.48039,-0.0722 1.88986,0.001 0.1819,0.0325 0.52208,0.0695 0.75597,0.0822 0.29392,0.0159 0.45058,0.0459 0.50742,0.0972 0.0452,0.0408 0.19171,0.0847 0.32557,0.0976 0.14898,0.0143 0.27744,0.0574 0.3312,0.11123 0.0483,0.0483 0.13872,0.0878 0.2009,0.0878 0.0622,0 0.12531,0.0319 0.14028,0.0709 0.0148,0.039 0.0706,0.0709 0.12362,0.0709 0.053,0 0.13284,0.0425 0.17735,0.0945 0.0445,0.052 0.0967,0.0945 0.1161,0.0945 0.0193,0 0.10956,0.0744 0.20052,0.16537 0.0909,0.0909 0.18307,0.16536 0.20468,0.16536 0.0217,0 0.0914,0.0845 0.15513,0.18772 0.0637,0.10324 0.1424,0.18829 0.17486,0.18898 0.0325,6.9e-4 0.0591,0.0438 0.0591,0.0958 0,0.052 0.0425,0.13702 0.0945,0.18899 0.052,0.052 0.0945,0.13722 0.0945,0.18945 0,0.0522 0.0425,0.13136 0.0945,0.17586 0.069,0.0591 0.0945,0.13938 0.0945,0.29762 0,0.11918 0.0312,0.25797 0.0694,0.30841 0.10001,0.13225 0.10001,1.3741 0,1.50635 -0.0382,0.0504 -0.0694,0.17465 -0.0694,0.27603 0,0.11277 -0.0367,0.23094 -0.0945,0.30444 -0.052,0.0661 -0.0945,0.16712 -0.0945,0.22455 0,0.0574 -0.0425,0.14291 -0.0945,0.18994 -0.052,0.047 -0.0945,0.11412 -0.0945,0.14907 0,0.0349 -0.0185,0.0635 -0.0412,0.0635 -0.0227,0 -0.11303,0.1165 -0.20082,0.25889 -0.0878,0.14239 -0.18102,0.25933 -0.20727,0.25986 -0.0262,5.3e-4 -0.0742,0.0435 -0.10671,0.0955 -0.0325,0.052 -0.0909,0.0945 -0.12993,0.0945 -0.039,0 -0.10735,0.0425 -0.15185,0.0945 -0.0445,0.052 -0.10581,0.0945 -0.13623,0.0945 -0.0304,0 -0.0668,0.0299 -0.0808,0.0664 -0.014,0.0365 -0.0889,0.0804 -0.16645,0.0974 -0.0775,0.017 -0.15218,0.0601 -0.16586,0.0958 -0.0138,0.0356 -0.0952,0.0715 -0.18111,0.0798 -0.12496,0.012 -0.1751,0.0502 -0.25024,0.19053 -0.0938,0.1752 -0.0938,0.17565 0,0.24654 0.0517,0.0391 0.13851,0.0717 0.19296,0.0725 0.0544,8.2e-4 0.13745,0.044 0.18449,0.096 0.047,0.052 0.11412,0.0945 0.14907,0.0945 0.0349,0 0.0635,0.0319 0.0635,0.0709 0,0.039 0.0246,0.0709 0.0548,0.0709 0.0598,0 0.32311,0.27648 0.32311,0.33924 0,0.0213 0.0319,0.0387 0.0709,0.0387 0.0395,0 0.0709,0.042 0.0709,0.095 0,0.0522 0.0425,0.13136 0.0945,0.17586 0.052,0.0445 0.0945,0.11871 0.0945,0.1649 0,0.0462 0.018,0.084 0.0397,0.084 0.0512,0 0.14931,0.2151 0.14931,0.32717 0,0.0476 0.0295,0.11098 0.0656,0.14093 0.0361,0.0299 0.0801,0.17053 0.0978,0.31241 0.0177,0.14188 0.0596,0.27413 0.0931,0.29388 0.0357,0.021 0.0713,0.169 0.0859,0.35711 0.0156,0.19901 0.0539,0.3532 0.10112,0.40532 0.0471,0.0521 0.0761,0.16819 0.0761,0.305 0,0.13061 0.0386,0.29292 0.0945,0.39718 0.0525,0.098 0.0945,0.26657 0.0945,0.37946 0,0.11174 0.0294,0.25026 0.0652,0.30781 0.0359,0.0575 0.078,0.22158 0.0937,0.3645 0.0164,0.14957 0.0588,0.28212 0.10012,0.31232 0.0441,0.0323 0.0717,0.12771 0.0717,0.24804 0,0.1326 0.0304,0.22603 0.0945,0.29009 0.0585,0.0585 0.0945,0.15749 0.0945,0.25986 v 0.16536 l -0.74414,-7.1e-4 c -0.40928,-3.7e-4 -0.76766,-0.0163 -0.79639,-0.0354 -0.0287,-0.0191 -0.0665,-0.1123 -0.0839,-0.20714 -0.0175,-0.0948 -0.063,-0.19843 -0.10131,-0.23021 -0.0419,-0.0348 -0.0696,-0.14005 -0.0696,-0.2646 0,-0.14383 -0.0288,-0.23561 -0.0945,-0.30132 -0.071,-0.071 -0.0945,-0.15749 -0.0945,-0.34799 0,-0.18194 -0.0267,-0.28739 -0.0945,-0.37361 -0.0691,-0.0878 -0.0945,-0.19167 -0.0945,-0.38601 0,-0.14624 -0.0296,-0.31297 -0.0659,-0.37053 -0.0362,-0.0576 -0.0805,-0.23221 -0.0983,-0.38812 -0.0177,-0.15592 -0.0626,-0.33057 -0.0995,-0.38813 -0.0369,-0.0576 -0.0671,-0.20127 -0.0671,-0.31938 0,-0.15627 -0.0257,-0.23676 -0.0945,-0.29564 -0.0588,-0.0504 -0.0945,-0.13938 -0.0945,-0.23577 0,-0.0919 -0.0384,-0.19331 -0.0945,-0.24936 -0.052,-0.052 -0.0945,-0.12352 -0.0945,-0.159 0,-0.0355 -0.0425,-0.11855 -0.0945,-0.18462 -0.052,-0.0661 -0.0945,-0.13552 -0.0945,-0.15433 0,-0.0516 -0.40592,-0.44699 -0.45892,-0.44699 -0.0254,0 -0.0846,-0.0425 -0.13166,-0.0945 -0.047,-0.052 -0.1267,-0.0945 -0.17703,-0.0945 -0.0503,0 -0.1456,-0.0425 -0.21166,-0.0945 -0.088,-0.0692 -0.1917,-0.0945 -0.3878,-0.0945 -0.14722,0 -0.28787,-0.0178 -0.31256,-0.0396 -0.11628,-0.1027 -0.59854,-0.15693 -1.26031,-0.14172 -0.64993,0.0149 -0.70279,0.0231 -0.8032,0.12359 l -0.10747,0.1076 -0.013,2.83353 -0.013,2.83353 h -0.69974 c -0.38487,0 -0.71393,-0.0142 -0.73126,-0.0315 z m 4.39706,-7.05555 c 0.0577,-0.0674 0.13938,-0.0945 0.28451,-0.0945 0.13573,0 0.21251,-0.0232 0.23029,-0.0696 0.0145,-0.0383 0.10078,-0.0835 0.19129,-0.10046 0.0905,-0.017 0.17579,-0.0601 0.18947,-0.0958 0.0138,-0.0357 0.0565,-0.0649 0.0951,-0.0649 0.0386,0 0.0813,-0.0425 0.0949,-0.0945 0.0138,-0.0523 0.0645,-0.0945 0.1137,-0.0945 0.0575,0 0.089,-0.0334 0.089,-0.0945 0,-0.063 0.0315,-0.0945 0.0945,-0.0945 0.052,0 0.0945,-0.0213 0.0945,-0.0472 0,-0.0427 0.0342,-0.0865 0.26204,-0.33469 0.0378,-0.0412 0.0687,-0.12285 0.0687,-0.18154 0,-0.0587 0.0425,-0.16076 0.0945,-0.22683 0.0718,-0.0913 0.0945,-0.19167 0.0945,-0.41807 0,-0.16387 0.0212,-0.31109 0.0472,-0.32715 0.0259,-0.0161 0.0472,-0.0798 0.0472,-0.14174 0,-0.0619 -0.0212,-0.12568 -0.0472,-0.14174 -0.0259,-0.0161 -0.0472,-0.19517 -0.0472,-0.39802 0,-0.29727 -0.0183,-0.39212 -0.0945,-0.48894 -0.052,-0.0661 -0.0945,-0.15112 -0.0945,-0.18899 0,-0.0379 -0.0425,-0.12292 -0.0945,-0.18899 -0.052,-0.0661 -0.0945,-0.14402 -0.0945,-0.17322 0,-0.0292 -0.0319,-0.0653 -0.0708,-0.0803 -0.039,-0.015 -0.0709,-0.0554 -0.0709,-0.0898 0,-0.0345 -0.0406,-0.0755 -0.0901,-0.0912 -0.0496,-0.0157 -0.10208,-0.0597 -0.11666,-0.0977 -0.0146,-0.038 -0.0504,-0.0691 -0.0796,-0.0691 -0.0292,0 -0.10716,-0.0425 -0.17322,-0.0945 -0.0661,-0.052 -0.14915,-0.0945 -0.18463,-0.0945 -0.0355,0 -0.10702,-0.0425 -0.15899,-0.0945 -0.063,-0.063 -0.15748,-0.0945 -0.28347,-0.0945 -0.10396,0 -0.189,-0.0192 -0.189,-0.0426 0,-0.0834 -0.30363,-0.14636 -0.7063,-0.14636 -0.23606,0 -0.43085,-0.0221 -0.46109,-0.0524 -0.0331,-0.0331 -0.13637,-0.041 -0.28112,-0.0214 -0.12581,0.017 -0.49935,0.0459 -0.83005,0.0642 l -0.60129,0.0332 -0.14285,0.15647 -0.14285,0.15647 v 2.31529 c 0,1.50564 0.0172,2.34725 0.0489,2.40668 0.0467,0.0872 0.11305,0.0914 1.4415,0.0914 1.33413,0 1.39599,-0.004 1.47349,-0.0945 z"
       style="fill:#ffffff;fill-opacity:1;stroke:none;stroke-width:4.06324387;stroke-linecap:square;stroke-linejoin:miter;stroke-miterlimit:4;stroke-dasharray:none;stroke-opacity:1;paint-order:fill markers stroke"
       class="--shape --light" />
    <path
       class="--shape --yellow"
       transform="matrix(0.26458333,0,0,0.26458333,0,161.53332)"
       id="path4584"
       d="M 3.855051,489.68706 C 5.2713673,484.04401 108.45763,135.90915 112.24901,123.98222 l 2.08722,-6.56599 h 43.96885 43.96884 l -42.84586,143.94674 -42.84587,143.94674 912.90841,0.5073 912.9084,0.50727 v 11.10948 c 0,10.17393 -0.3828,11.10948 -4.5457,11.10982 -2.5001,2e-4 -155.4625,15.00012 -339.9163,33.33315 l -335.3707,33.33282 -630.04912,0.002 -630.0491232,0.002 z"
       style="fill:#f9c138;fill-opacity:1;stroke:none;stroke-width:173.74623108;stroke-linecap:square;stroke-linejoin:miter;stroke-miterlimit:4;stroke-dasharray:none;stroke-opacity:1;paint-order:fill markers stroke" />
  </g>
</svg>
