<?xml version="1.0" encoding="UTF-8" standalone="no"?>
<svg
   xmlns:dc="http://purl.org/dc/elements/1.1/"
   xmlns:cc="http://creativecommons.org/ns#"
   xmlns:rdf="http://www.w3.org/1999/02/22-rdf-syntax-ns#"
   xmlns:svg="http://www.w3.org/2000/svg"
   xmlns="http://www.w3.org/2000/svg"
   xmlns:sodipodi="http://sodipodi.sourceforge.net/DTD/sodipodi-0.dtd"
   xmlns:inkscape="http://www.inkscape.org/namespaces/inkscape"
   viewBox="0 0 500 500"
   version="1.1"
   id="svg14"
   sodipodi:docname="location.svg"
   inkscape:version="0.92.4 5da689c313, 2019-01-14">
  <metadata
     id="metadata18">
    <rdf:RDF>
      <cc:Work
         rdf:about="">
        <dc:format>image/svg+xml</dc:format>
        <dc:type
           rdf:resource="http://purl.org/dc/dcmitype/StillImage" />
      </cc:Work>
    </rdf:RDF>
  </metadata>
  <sodipodi:namedview
     pagecolor="#ffffff"
     bordercolor="#666666"
     borderopacity="1"
     objecttolerance="10"
     gridtolerance="10"
     guidetolerance="10"
     inkscape:pageopacity="0"
     inkscape:pageshadow="2"
     inkscape:window-width="1920"
     inkscape:window-height="1040"
     id="namedview16"
     showgrid="false"
     inkscape:zoom="0.472"
     inkscape:cx="250"
     inkscape:cy="250"
     inkscape:window-x="1920"
     inkscape:window-y="0"
     inkscape:window-maximized="1"
     inkscape:current-layer="svg14" />
  <defs
     id="defs4">
    <style
       id="style2">.cls-1{fill:#fff;}.cls-2{fill:#ffc11f;}</style>
  </defs>
  <title
     id="title6">icon_location</title>
  <g
     id="localização"
     transform="matrix(2.5316044,0,0,2.5316044,-382.87812,-382.87029)">
    <path
       class="cls-2"
       d="m 250,153.15 a 74.73,74.73 0 0 0 -74.64,74.65 c 0,29.41 12.31,59.16 35.61,86 a 188.24,188.24 0 0 0 35.37,31.91 6.64,6.64 0 0 0 7.32,0 188.58,188.58 0 0 0 35.34,-31.87 c 23.3,-26.88 35.61,-56.63 35.61,-86 A 74.73,74.73 0 0 0 250,153.15 Z m 0,102.34 A 28.67,28.67 0 1 1 278.67,226.83 28.66,28.66 0 0 1 250,255.49 Z"
       id="path11"
       inkscape:connector-curvature="0"
       style="fill:#ffc11f" />
  </g>
</svg>
