<svg id="mission" xmlns="http://www.w3.org/2000/svg" viewBox="0 0 433.29 358"><defs><style>.cls-1{fill:#4550e5;}.cls-2{fill:#f8c038;}.cls-3{fill:#fff;}</style></defs><title>icon_mission</title><path class="cls-1" d="M366.16,534.68H279a4.87,4.87,0,1,1,0-9.73h87.19a4.87,4.87,0,1,1,0,9.73Z" transform="translate(-99.21 -176.68)"/><path class="cls-2" d="M518.22,534.68H394.92a4.87,4.87,0,1,1,0-9.73h123.3a4.55,4.55,0,0,0,4.55-4.54V232.46a4.21,4.21,0,0,0-1.23-3.06l-.08-.09-41.59-41.58-.18-.19a2.61,2.61,0,0,0-1-.64c-.1-.05-.21-.09-.31-.15a4,4,0,0,0-1.75-.34H279a4.55,4.55,0,0,0-4.55,4.55v25.67a4.87,4.87,0,1,1-9.73,0V191A14.3,14.3,0,0,1,279,176.68H476.64a13.55,13.55,0,0,1,5.95,1.3,12.26,12.26,0,0,1,4.24,2.94L528.3,222.4a14,14,0,0,1,4.2,10.06V520.41A14.29,14.29,0,0,1,518.22,534.68Z" transform="translate(-99.21 -176.68)"/><path class="cls-2" d="M457.81,497A52,52,0,0,1,413,471.16a4.87,4.87,0,0,1,8.42-4.88,42.22,42.22,0,1,0-5.67-22.19,4.87,4.87,0,1,1-9.73-.2,51.82,51.82,0,0,1,51.84-50.71,51.93,51.93,0,1,1,0,103.85Z" transform="translate(-99.21 -176.68)"/><path class="cls-2" d="M453.15,468.77a4.86,4.86,0,0,1-3.43-1.42l-18.85-18.83a4.86,4.86,0,0,1,6.88-6.88l15.15,15.13,27.15-31.34a4.87,4.87,0,1,1,7.36,6.37l-30.58,35.29a4.86,4.86,0,0,1-3.5,1.68Z" transform="translate(-99.21 -176.68)"/><path class="cls-2" d="M476.64,299.37H332.54a4.87,4.87,0,1,1,0-9.73h144.1a4.87,4.87,0,0,1,0,9.73Z" transform="translate(-99.21 -176.68)"/><path class="cls-2" d="M406.6,271.11H344.08a4.87,4.87,0,0,1,0-9.73H406.6a4.87,4.87,0,0,1,0,9.73Z" transform="translate(-99.21 -176.68)"/><path class="cls-2" d="M476.68,327.58H330.76a4.87,4.87,0,0,1,0-9.73H476.68a4.87,4.87,0,0,1,0,9.73Z" transform="translate(-99.21 -176.68)"/><path class="cls-2" d="M476.68,355.82H330.76a4.87,4.87,0,0,1,0-9.73H476.68a4.87,4.87,0,0,1,0,9.73Z" transform="translate(-99.21 -176.68)"/><path class="cls-2" d="M526.71,233.46H489.13A13.45,13.45,0,0,1,475.7,220V182.44a4.86,4.86,0,0,1,6.91-4.41,14.2,14.2,0,0,1,4.16,2.81l41.55,41.55a14.85,14.85,0,0,1,2.82,4.18,4.87,4.87,0,0,1-4.43,6.89Zm-41.27-40.19V220a3.7,3.7,0,0,0,3.69,3.7H515.9Z" transform="translate(-99.21 -176.68)"/><path class="cls-3" d="M387.31,506.42H112.62A13.43,13.43,0,0,1,99.21,493V469.89a39.13,39.13,0,0,1,39.09-39.08H361.63a39.13,39.13,0,0,1,39.09,39.08V493A13.43,13.43,0,0,1,387.31,506.42Zm-249-65.88a29.39,29.39,0,0,0-29.36,29.35V493a3.69,3.69,0,0,0,3.68,3.69H387.31A3.69,3.69,0,0,0,391,493V469.89a29.39,29.39,0,0,0-29.36-29.35Z" transform="translate(-99.21 -176.68)"/><path class="cls-3" d="M282.91,440.54H217a4.87,4.87,0,0,1-4.87-4.87c0-80.39-12.77-113.25-16.68-121.4a4.87,4.87,0,0,1,6.1-6.66,12.24,12.24,0,0,0,4.31.83H294a12.32,12.32,0,0,0,4.31-.83,4.86,4.86,0,0,1,6.09,6.66c-3.91,8.14-16.67,40.93-16.67,121.4A4.87,4.87,0,0,1,282.91,440.54Zm-61-9.73h56.18c.4-63,8.5-96.63,14.26-112.64H207.6C213.36,334.19,221.48,367.84,221.88,430.81Z" transform="translate(-99.21 -176.68)"/><path class="cls-3" d="M366.15,534.67H133.76A13.43,13.43,0,0,1,121,525.5l-7.47-22.41a4.86,4.86,0,0,1,4.62-6.4H381.74a4.85,4.85,0,0,1,4.61,6.4l-7.47,22.4A13.38,13.38,0,0,1,366.15,534.67ZM124.93,506.42l5.33,16a3.69,3.69,0,0,0,3.5,2.52H366.15a3.66,3.66,0,0,0,3.5-2.51h0l5.34-16Z" transform="translate(-99.21 -176.68)"/><path class="cls-3" d="M283.45,412.3h-67a4.87,4.87,0,1,1,0-9.73h67a4.87,4.87,0,1,1,0,9.73Z" transform="translate(-99.21 -176.68)"/><path class="cls-3" d="M294,318.65H205.89a22.49,22.49,0,0,1-22.47-22.46V255.12a22.5,22.5,0,0,1,22.47-22.47H294a22.5,22.5,0,0,1,22.47,22.47v41.07A22.49,22.49,0,0,1,294,318.65Zm-88.15-75.3a11.78,11.78,0,0,0-11.77,11.77v41.07A11.78,11.78,0,0,0,205.89,308H294a11.78,11.78,0,0,0,11.77-11.76V255.12A11.78,11.78,0,0,0,294,243.35Z" transform="translate(-99.21 -176.68)"/></svg>