<?xml version="1.0" encoding="UTF-8" standalone="no"?>
<svg
   xmlns:dc="http://purl.org/dc/elements/1.1/"
   xmlns:cc="http://creativecommons.org/ns#"
   xmlns:rdf="http://www.w3.org/1999/02/22-rdf-syntax-ns#"
   xmlns:svg="http://www.w3.org/2000/svg"
   xmlns="http://www.w3.org/2000/svg"
   xmlns:sodipodi="http://sodipodi.sourceforge.net/DTD/sodipodi-0.dtd"
   xmlns:inkscape="http://www.inkscape.org/namespaces/inkscape"
   viewBox="0 0 500 500"
   version="1.1"
   id="svg14"
   sodipodi:docname="icon_tel.svg"
   inkscape:version="0.92.4 5da689c313, 2019-01-14">
  <metadata
     id="metadata18">
    <rdf:RDF>
      <cc:Work
         rdf:about="">
        <dc:format>image/svg+xml</dc:format>
        <dc:type
           rdf:resource="http://purl.org/dc/dcmitype/StillImage" />
      </cc:Work>
    </rdf:RDF>
  </metadata>
  <sodipodi:namedview
     pagecolor="#ffffff"
     bordercolor="#666666"
     borderopacity="1"
     objecttolerance="10"
     gridtolerance="10"
     guidetolerance="10"
     inkscape:pageopacity="0"
     inkscape:pageshadow="2"
     inkscape:window-width="1920"
     inkscape:window-height="1040"
     id="namedview16"
     showgrid="false"
     inkscape:zoom="0.472"
     inkscape:cx="250"
     inkscape:cy="250"
     inkscape:window-x="1920"
     inkscape:window-y="0"
     inkscape:window-maximized="1"
     inkscape:current-layer="svg14" />
  <defs
     id="defs4">
    <style
       id="style2">.cls-1{fill:#fff;}.cls-2{fill:#f9c138;}</style>
  </defs>
  <title
     id="title6">icon_tel</title>
  <g
     id="telefone"
     transform="matrix(2.9422948,0,0,2.9422948,-482.16801,-464.0427)">
    <path
       class="cls-2"
       d="m 315.24,260.55 a 94.84,94.84 0 0 1 -16.95,-3.55 19.34,19.34 0 0 0 -19.37,4.77 l -10.53,10.53 a 121.42,121.42 0 0 1 -48,-48 l 10.53,-10.52 A 19.35,19.35 0 0 0 235.69,194.4 94.66,94.66 0 0 1 232.18,177.45 19.3,19.3 0 0 0 213,160.38 h -26 a 19.36,19.36 0 0 0 -19.35,19.4 c 0,0.59 0,1.18 0.08,1.78 A 158.76,158.76 0 0 0 311.18,325 19.37,19.37 0 0 0 332.36,305.74 v -26 a 19.3,19.3 0 0 0 -17.12,-19.19 z"
       id="path11"
       inkscape:connector-curvature="0"
       style="fill:#f9c138" />
  </g>
</svg>
