<?xml version="1.0" encoding="UTF-8" standalone="no"?>
<svg
   xmlns:dc="http://purl.org/dc/elements/1.1/"
   xmlns:cc="http://creativecommons.org/ns#"
   xmlns:rdf="http://www.w3.org/1999/02/22-rdf-syntax-ns#"
   xmlns:svg="http://www.w3.org/2000/svg"
   xmlns="http://www.w3.org/2000/svg"
   xmlns:sodipodi="http://sodipodi.sourceforge.net/DTD/sodipodi-0.dtd"
   xmlns:inkscape="http://www.inkscape.org/namespaces/inkscape"
   aria-hidden="true"
   focusable="false"
   data-prefix="fal"
   data-icon="phone-square"
   role="img"
   viewBox="0 0 448 512"
   class="svg-inline--fa fa-phone-square fa-w-14 fa-9x"
   version="1.1"
   id="svg4"
   sodipodi:docname="phone.svg"
   inkscape:version="0.92.4 (5da689c313, 2019-01-14)">
  <metadata
     id="metadata10">
    <rdf:RDF>
      <cc:Work
         rdf:about="">
        <dc:format>image/svg+xml</dc:format>
        <dc:type
           rdf:resource="http://purl.org/dc/dcmitype/StillImage" />
      </cc:Work>
    </rdf:RDF>
  </metadata>
  <defs
     id="defs8" />
  <sodipodi:namedview
     pagecolor="#ffffff"
     bordercolor="#666666"
     borderopacity="1"
     objecttolerance="10"
     gridtolerance="10"
     guidetolerance="10"
     inkscape:pageopacity="0"
     inkscape:pageshadow="2"
     inkscape:window-width="1920"
     inkscape:window-height="1017"
     id="namedview6"
     showgrid="false"
     inkscape:zoom="0.921875"
     inkscape:cx="135.7247"
     inkscape:cy="99.304405"
     inkscape:window-x="-8"
     inkscape:window-y="-8"
     inkscape:window-maximized="1"
     inkscape:current-layer="svg4" />
  <path
     style="stroke-width:1.51312959;fill:#f39c19;fill-opacity:1"
     d="M 47.371561,475.48346 C 34.89987,470.76278 26.12163,462.51425 22.096322,451.73341 18.580608,442.31739 0.64422891,360.4784 0.65744435,353.91344 0.66651176,349.40049 2.0478078,343.61679 4.2417294,338.90526 10.527064,325.40723 16.462274,321.75417 68.733493,299.21118 c 40.234217,-17.3518 49.114337,-20.65447 56.970977,-21.18851 10.21485,-0.69435 18.21325,1.32638 25.96701,6.56027 4.10513,2.77103 18.52291,19.15704 33.63758,38.22969 l 2.75632,3.47805 13.34256,-8.29743 c 33.47549,-20.81766 64.24007,-51.69671 85.24268,-85.55991 l 7.5607,-12.19032 -16.2769,-13.2491 c -28.93806,-23.55509 -33.03805,-29.77611 -31.86537,-48.34996 0.57723,-9.1423 2.92285,-15.59896 20.98078,-57.7525 22.36022,-52.196596 26.11152,-58.274287 39.94394,-64.715518 4.54791,-2.117791 10.47798,-3.555844 14.69954,-3.564663 6.30276,-0.01311 84.86064,17.152106 97.95895,21.404508 6.72831,2.184356 17.70444,12.373606 21.67787,20.123762 4.14668,8.088102 4.98978,22.56107 2.79146,47.918891 -8.19425,94.52154 -45.8104,175.77966 -112.02385,241.99312 -33.22553,33.22552 -63.33488,54.67534 -105.44319,75.11743 -47.70259,23.15794 -99.05584,35.8962 -151.79538,37.65313 -16.452535,0.54807 -23.396373,0.20991 -27.487609,-1.33866 z M 114.1063,429.75691 c 58.25429,-9.5858 114.01408,-34.43968 160.09209,-71.35807 57.21362,-45.84042 99.92601,-112.54295 117.47053,-183.44985 6.10894,-24.68963 9.91642,-51.98639 9.9407,-71.26725 l 0.0125,-9.867203 -35.18027,-8.031482 C 347.09276,81.365746 329.86357,77.42466 328.15483,77.0251 c -2.78052,-0.65017 -4.98717,3.663302 -21.01093,41.07116 -10.02826,23.41129 -17.31454,42.33082 -16.56387,43.00974 0.73713,0.66667 13.25614,10.8877 27.82,22.71339 14.56387,11.82572 27.09458,22.37223 27.84603,23.43672 0.91537,1.29671 -1.25522,7.12672 -6.57714,17.66559 -28.17463,55.79345 -61.86572,94.75867 -107.51727,124.34841 -15.77682,10.22599 -47.8029,27.78707 -52.98423,29.05322 -3.45819,0.84507 -5.81815,-1.5285 -25.7232,-25.87151 -12.05363,-14.74107 -22.67301,-27.82917 -23.59859,-29.08468 -1.44468,-1.9596 -7.54507,0.23126 -43.097696,15.47781 -22.778162,9.76827 -41.65143,17.9971 -41.940609,18.28629 -0.289181,0.28917 3.431599,17.70514 8.268401,38.70214 l 8.794182,38.17636 18.941443,-0.94545 c 10.417794,-0.52001 25.400589,-2.00832 33.295089,-3.30738 z"
     id="path12"
     inkscape:connector-curvature="0" />
</svg>
