<svg id="value" xmlns="http://www.w3.org/2000/svg" viewBox="0 0 552.47 349.47"><defs><style>.cls-1{fill:#fff;}.cls-2{fill:#f9c138;}</style></defs><title>icon_value</title><path class="cls-1" d="M436,523.89a35.6,35.6,0,0,1-19.32-6l-44-24.54A6.49,6.49,0,0,1,379,482l44.18,24.64.35.21c13.58,8.73,23.14.65,23.24.56s.34-.27.51-.4c3.29-2.32,5.09-4.93,5.5-8,.75-5.57-3.2-11.87-4.65-13.63a6.49,6.49,0,1,1,10-8.22c.93,1.14,9.1,11.52,7.46,23.59-.88,6.53-4.55,12.28-10.61,16.65A30.57,30.57,0,0,1,436,523.89Z" transform="translate(-57.53 -222.05)"/><path class="cls-1" d="M232,468.4h0c-1.87-1.3-3.68-2.56-5.48-3.77l-1.3-.88a59.84,59.84,0,0,1-4.95,12.3c3.39,2.34,6.95,4.85,10.64,7.5a62.48,62.48,0,0,0,5.53-12Zm65.13,49.17c-3.65,2.84-7.3,5.61-10.71,8.13,3.61,2.84,7.13,5.64,10.56,8.36,3.63-2.72,7.25-5.53,10.61-8.17C304.21,523.23,300.72,520.44,297.08,517.57Zm135.41,6.13a50.52,50.52,0,0,0-7.18-15.06,6.38,6.38,0,0,0-1.69-1.67,6.52,6.52,0,0,0-.72-.43h0l-.06,0a6.49,6.49,0,0,0-8.14,9.55c.27.39.53.78.79,1.2,3.25,5.11,5.63,11.62,4.74,13.31a7.86,7.86,0,0,0-.41.94c-.66.64-5.14,4.09-22,2.23a54.94,54.94,0,0,1-28.09-11.18c-4.53-3.58-6.36-6.24-7.1-7.83A6.49,6.49,0,0,0,350.72,520c3.23,7.64,7.6,24.88.49,29.37l-.2.13a13.6,13.6,0,0,1-14.33.07c-.23-.2-.5-.42-.8-.66-2.07-1.72-5.53-4.56-10-8.23a116.14,116.14,0,0,1-9.1,9.35c3.75,3,7.18,5.84,10.17,8.3l1.86,1.53a5.42,5.42,0,0,0,.67.48,26.07,26.07,0,0,0,14.14,4.24,27.73,27.73,0,0,0,14.63-4.29c8.26-5.25,10.23-14.39,9.79-23.13a68.77,68.77,0,0,0,28.36,9.49c28.22,3.09,34.38-6.35,35.71-10.82C433.72,532.07,433.51,527.77,432.49,523.7ZM263,491.12a115,115,0,0,1-8.26,10.09c3.43,2.61,6.9,5.25,10.37,7.92A119.41,119.41,0,0,0,273.36,499C269.93,496.38,266.46,493.74,263,491.12Zm-36.53-26.49c.06.14.13.27.2.4l.19.32a5.82,5.82,0,0,0,1.86,1.93,3.22,3.22,0,0,0,.36.24,3.72,3.72,0,0,0,.39.21l.39.18a.71.71,0,0,0,.16.07l.18.07.26.08.21.06a2.91,2.91,0,0,0,.51.12l.36.06a2,2,0,0,0,.36,0s0,0,.05,0C230.07,467.1,228.26,465.84,226.46,464.63ZM263,491.12a115,115,0,0,1-8.26,10.09c3.43,2.61,6.9,5.25,10.37,7.92A119.41,119.41,0,0,0,273.36,499C269.93,496.38,266.46,493.74,263,491.12Zm-36.53-26.49c.06.14.13.27.2.4l.19.32a5.82,5.82,0,0,0,1.86,1.93,3.22,3.22,0,0,0,.36.24,3.72,3.72,0,0,0,.39.21l.39.18a.71.71,0,0,0,.16.07l.18.07.26.08.21.06a2.91,2.91,0,0,0,.51.12l.36.06a2,2,0,0,0,.36,0s0,0,.05,0C230.07,467.1,228.26,465.84,226.46,464.63ZM263,491.12a115,115,0,0,1-8.26,10.09c3.43,2.61,6.9,5.25,10.37,7.92A119.41,119.41,0,0,0,273.36,499C269.93,496.38,266.46,493.74,263,491.12ZM347.88,276a6.47,6.47,0,0,0-.42-2.15,6.33,6.33,0,0,0-2.07-2.81c-32.76-25.62-65.83-7-85.59,4.11-2.44,1.38-4.75,2.67-6.81,3.75-16.22,8.47-41.83,2.21-42.08,2.15a6.48,6.48,0,0,0-7.09,2.83l-2.41,3.83,10.84,7.14.16-.24c9.33,1.68,30.59,4.16,46.6-4.22,2.23-1.15,4.61-2.5,7.15-3.93C284.7,276,309.87,261.86,335,279.5c0,.16,0,.32,0,.49.16,3.17.49,8.17,1.18,14.38l1.11-.55c.21-.11.42-.23.62-.36a84.85,84.85,0,0,1,10.68-6C348,280.55,347.88,276.17,347.88,276Zm-151,171.56a6.07,6.07,0,0,0-2.11-.31,2.67,2.67,0,0,0-.4,0c-3.18.22-13.62-.17-14.71-14a6.29,6.29,0,0,0-.18-1.14c-.3-1.15-7-25.83-30.49-36.56l.74-1.16-10.85-7.14-5.17,8.21a6.51,6.51,0,0,0-.54,5.82c.05.13.1.26.16.38a6.4,6.4,0,0,0,4.19,3.52c21.19,5.72,28.22,26.31,29.27,29.75.77,8.16,3.83,14.57,9.11,19.05a25.1,25.1,0,0,0,6.6,4,29.94,29.94,0,0,0,11.29,2.24h.06c.86.33,1.82.75,2.87,1.26,3.75-3.2,8.89-5.27,15.36-6.22C205.78,451.49,200.56,448.77,196.84,447.55ZM263,491.12a115,115,0,0,1-8.26,10.09c3.43,2.61,6.9,5.25,10.37,7.92A119.41,119.41,0,0,0,273.36,499C269.93,496.38,266.46,493.74,263,491.12Zm-36.53-26.49c.06.14.13.27.2.4l.19.32a5.82,5.82,0,0,0,1.86,1.93,3.22,3.22,0,0,0,.36.24,3.72,3.72,0,0,0,.39.21l.39.18a.71.71,0,0,0,.16.07l.18.07.26.08.21.06a2.91,2.91,0,0,0,.51.12l.36.06a2,2,0,0,0,.36,0s0,0,.05,0C230.07,467.1,228.26,465.84,226.46,464.63ZM505.7,454.55c-1.89-6.33-6.67-11.12-11-14.32a45.06,45.06,0,0,0-7.79-4.68l-3.81-1.94L418,400.5,390.8,386.66c-7.62-4.48-13.9-11.18-19-19.11l0,0a67.77,67.77,0,0,1-5.19-7.19,5.23,5.23,0,0,0-.41-.63,29.54,29.54,0,0,0-17.85-11.05A126.88,126.88,0,0,0,361.81,376c6.08,9,13.51,16.71,22.63,22l.32.18,96.44,49,.3.15c2.06.93,10.14,5.49,11.76,10.94.38,1.26.66,3.25-1.05,6.21-2.52,2.31-15.71,13.1-37.21,10.55l-41.95-20.35a6.49,6.49,0,1,0-5.66,11.68l41.46,20.12h0l1.42.7a7,7,0,0,0,2,.59,65,65,0,0,0,12,.56c23.58-1,37.1-14.55,37.75-15.21a6.48,6.48,0,0,0,.81-1C506.42,466.41,507.43,460.33,505.7,454.55Z" transform="translate(-57.53 -222.05)"/><path class="cls-1" d="M202.76,248l-38.6-22.29a27,27,0,0,0-36.85,9.88L61.14,350.15A27,27,0,0,0,71,387l38.62,22.29a26.72,26.72,0,0,0,13.44,3.6,27,27,0,0,0,23.41-13.47l58.9-102,7.26-12.58A27,27,0,0,0,202.76,248ZM116.12,398.05l-38.61-22.3a14,14,0,0,1-5.13-19.11L138.54,242a14,14,0,0,1,19.13-5.12l38.6,22.29a14,14,0,0,1,5.13,19.12l-66.16,114.6A14,14,0,0,1,116.12,398.05Z" transform="translate(-57.53 -222.05)"/><circle class="cls-1" cx="121.46" cy="58.86" r="10.98"/><path class="cls-2" d="M462.15,300.23a6.45,6.45,0,0,1-6.77,6.18c-1.23-.05-29.54-1.55-43.49-18.41a72.93,72.93,0,0,0-63.24-.51,84.85,84.85,0,0,0-10.68,6c-.2.13-.41.25-.62.36l-1.11.55c-7.11,3.57-45.05,22.15-69.29,26.37a7.76,7.76,0,0,0-6.42,8.42c.73,7.91,2.66,13.86,5.12,15.9a6.29,6.29,0,0,1,1.17,1.25,29.22,29.22,0,0,0,28.75,10.21c3.27-1.08,24.07-7.7,38.15-8.25a41,41,0,0,1,14.55.37,29.54,29.54,0,0,1,17.85,11.05,5.23,5.23,0,0,1,.41.63,67.77,67.77,0,0,0,5.19,7.19l0,0c7.18,8.84,21.3,22.39,39.11,20.66l.23,0c8-.5,25.88-3.89,30-11.16a6.49,6.49,0,0,1,11.3,6.39c-6.61,11.65-24.64,15.71-34.39,17.08-2.95.41-5.15.58-6,.64-1.48.14-2.93.21-4.36.21-21.5,0-37.49-15.17-45.83-25.4a80.17,80.17,0,0,1-6.24-8.68c-6.77-8.58-19.77-6.2-19.9-6.17a6.37,6.37,0,0,1-1.07.12c-13.1.39-35.12,7.68-35.34,7.75a7.44,7.44,0,0,1-.78.2,42.13,42.13,0,0,1-41.71-14.65c-5-4.57-8.1-12.68-9.16-24.15a20.66,20.66,0,0,1,17.11-22.43c23.27-4,62.57-23.6,66.44-25.53q1.95-1.28,3.9-2.42a93.8,93.8,0,0,1,12.4-6.15c38.54-15.65,70.48,2.61,72,3.5a6.74,6.74,0,0,1,1.89,1.68c8.24,10.9,27.79,14.11,34.62,14.43a6.47,6.47,0,0,1,5.84,4.39A6.3,6.3,0,0,1,462.15,300.23Z" transform="translate(-57.53 -222.05)"/><path class="cls-2" d="M529.08,407a5.9,5.9,0,0,0-1.87-3.3c-.11-.11-.23-.21-.35-.31-1.14-.88-3.52-2.72-12.13.55-4.77,1.8-19.81,8.61-25,24.08a31.85,31.85,0,0,0-1,3.52,6,6,0,0,0,4.41,7.14,5.59,5.59,0,0,0,1.28.15,5.87,5.87,0,0,0,5.67-4.67v0c2.93-13.3,18.33-19.45,22.27-20.05a5.75,5.75,0,0,0,5.65-2.3A6.1,6.1,0,0,0,529.08,407Z" transform="translate(-57.53 -222.05)"/><path class="cls-2" d="M232,468.4h0s0,0-.05,0a2,2,0,0,1-.36,0l-.36-.06a2.91,2.91,0,0,1-.51-.12l-.21-.06-.26-.08L230,468a.71.71,0,0,1-.16-.07l-.39-.18a3.72,3.72,0,0,1-.39-.21,3.22,3.22,0,0,1-.36-.24,5.82,5.82,0,0,1-1.86-1.93l-.19-.32c-.07-.13-.14-.26-.2-.4l-1.3-.88a59.84,59.84,0,0,1-4.95,12.3c-2.42,4.29-5.47,7.72-9.18,8.78a6.24,6.24,0,0,1,3-.07,6.51,6.51,0,0,1,5,7.72c-.1.43-.18.87-.25,1.29-.11.69-.19,1.35-.23,2,5.22-2.62,9.23-7.12,12.31-12.21a62.48,62.48,0,0,0,5.53-12Zm0,0h0s0,0-.05,0a2,2,0,0,1-.36,0l-.36-.06a2.91,2.91,0,0,1-.51-.12l-.21-.06-.26-.08L230,468a.71.71,0,0,1-.16-.07l-.39-.18a3.72,3.72,0,0,1-.39-.21,3.22,3.22,0,0,1-.36-.24,5.82,5.82,0,0,1-1.86-1.93l-.19-.32c-.07-.13-.14-.26-.2-.4s-.1-.24-.15-.36a6.54,6.54,0,0,1-.3-3.67c-.24,1-.53,2.07-.85,3.15a59.84,59.84,0,0,1-4.95,12.3c-2.42,4.29-5.47,7.72-9.18,8.78a6.24,6.24,0,0,1,3-.07,6.51,6.51,0,0,1,5,7.72c-.1.43-.18.87-.25,1.29-.11.69-.19,1.35-.23,2,5.22-2.62,9.23-7.12,12.31-12.21a62.48,62.48,0,0,0,5.53-12Zm-5.64-4.13a6.54,6.54,0,0,1-.3-3.67c-.24,1-.53,2.07-.85,3.15l1.3.88C226.4,464.51,226.36,464.39,226.31,464.27Zm13.92-11.56a6.31,6.31,0,0,0-1.26-2.62c-6.45-8.08-14.55-8.42-16.58-8.38-11.12-.17-20.36,1.69-27.66,5.53a34.15,34.15,0,0,0-10.52,8.45c-.62.76-1.21,1.54-1.75,2.32-9.2,13.27-6,29.44-5.89,30.15A6.49,6.49,0,0,0,179,492a36.53,36.53,0,0,0,22.4,7.47,41.11,41.11,0,0,0,4.12-.21,39.07,39.07,0,0,0,9.17-2,22.57,22.57,0,0,0,3.84-1.52c5.22-2.62,9.23-7.12,12.31-12.21a62.48,62.48,0,0,0,5.53-12c.54-1.59,1-3.15,1.44-4.63a87.86,87.86,0,0,0,2.52-11.9A6.06,6.06,0,0,0,240.23,452.71ZM211,484.83a4.48,4.48,0,0,0-.52.16l-.38.15c-1.38.49-11.44,3.83-21.12-2-.31-4.12-.17-12.71,5.19-19.14a18.82,18.82,0,0,1,2.48-2.49c3.75-3.2,8.89-5.27,15.36-6.22a61.51,61.51,0,0,1,10.28-.6,3.65,3.65,0,0,0,.47,0,7.57,7.57,0,0,1,4.18,1.66c-.21,1.1-.48,2.33-.8,3.64-.06.2-.11.4-.16.61-.24,1-.53,2.07-.85,3.15a59.84,59.84,0,0,1-4.95,12.3C217.79,480.34,214.74,483.77,211,484.83Zm15.28-20.56a6.54,6.54,0,0,1-.3-3.67c-.24,1-.53,2.07-.85,3.15l1.3.88C226.4,464.51,226.36,464.39,226.31,464.27ZM232,468.4h0s0,0-.05,0a2,2,0,0,1-.36,0l-.36-.06a2.91,2.91,0,0,1-.51-.12l-.21-.06-.26-.08L230,468a.71.71,0,0,1-.16-.07l-.39-.18a3.72,3.72,0,0,1-.39-.21,3.22,3.22,0,0,1-.36-.24,5.82,5.82,0,0,1-1.86-1.93l-.19-.32c-.07-.13-.14-.26-.2-.4l-1.3-.88a59.84,59.84,0,0,1-4.95,12.3c-2.42,4.29-5.47,7.72-9.18,8.78a6.24,6.24,0,0,1,3-.07,6.51,6.51,0,0,1,5,7.72c-.1.43-.18.87-.25,1.29-.11.69-.19,1.35-.23,2,5.22-2.62,9.23-7.12,12.31-12.21a62.48,62.48,0,0,0,5.53-12Z" transform="translate(-57.53 -222.05)"/><path class="cls-2" d="M289.33,473.67c-.53,1-1.41,2.6-2.58,4.62A215.14,215.14,0,0,1,273.36,499a119.41,119.41,0,0,1-8.26,10.09,50.78,50.78,0,0,1-11.05,9.36,23.29,23.29,0,0,1-3.43,1.65,53,53,0,0,1-9.57,2.55,59.59,59.59,0,0,1-10,.84A54.83,54.83,0,0,1,217.75,522a6.59,6.59,0,0,1-2.56-1.38,32.05,32.05,0,0,1-9.66-21.34,35.11,35.11,0,0,1,.79-9.55,6.45,6.45,0,0,1,3.81-4.6l.38-.15a4.48,4.48,0,0,1,.52-.16,6.24,6.24,0,0,1,3-.07,6.51,6.51,0,0,1,5,7.72c-.1.43-.18.87-.25,1.29-.11.69-.19,1.35-.23,2a19.65,19.65,0,0,0,4.25,14.06A46,46,0,0,0,246.1,508c2.45-.91,5.43-3.36,8.63-6.75A115,115,0,0,0,263,491.12h0a214.51,214.51,0,0,0,13-20.18c-4-3.93-12.25-5.44-14.63-5.64a6.61,6.61,0,0,1-2.34-.66c-4-2-14-.05-21.23,2.27-1.13.37-2.18.74-3.12,1.1a6.42,6.42,0,0,1-2.75.4h0s0,0-.05,0a2,2,0,0,1-.36,0l-.36-.06a2.91,2.91,0,0,1-.51-.12l-.21-.06-.26-.08L230,468a.71.71,0,0,1-.16-.07l-.39-.18a3.72,3.72,0,0,1-.39-.21,3.22,3.22,0,0,1-.36-.24,5.82,5.82,0,0,1-1.86-1.93l-.19-.32c-.07-.13-.14-.26-.2-.4s-.1-.24-.15-.36a6.54,6.54,0,0,1-.3-3.67c.05-.21.1-.41.16-.61a6.47,6.47,0,0,1,3.86-4.11,88,88,0,0,1,10.2-3.17c7.2-1.76,16.56-3,23.43-.23,4.19.52,17.06,2.82,23.68,11.76a20,20,0,0,1,2.19,3.68A6.47,6.47,0,0,1,289.33,473.67Z" transform="translate(-57.53 -222.05)"/><path class="cls-2" d="M333,497.79a45.1,45.1,0,0,1-6.41,11.38,51,51,0,0,1-12.41,11.4c-2,1.63-4.29,3.44-6.68,5.32-3.36,2.64-7,5.45-10.61,8.17-2.06,1.54-4.11,3.05-6.13,4.5-4.47,3.2-8.74,6.07-12.27,8.11a25.55,25.55,0,0,1-6.89,3.08,6.75,6.75,0,0,1-1.19.1,7.08,7.08,0,0,1-1.52-.17c-1.75-.43-17.41-4.46-24.59-16.69a24.74,24.74,0,0,1-3.29-10.3,28.69,28.69,0,0,1,1.06-10.41,6.49,6.49,0,0,1,12.49,3.54,17.39,17.39,0,0,0-.55,2.67,12,12,0,0,0,1.49,7.93c3.42,5.84,11.24,9,14.69,10.11a101.27,101.27,0,0,0,10.92-7l.08-.05c.21-.17.44-.32.66-.48l0,0,4.45-3.23c3.41-2.52,7.06-5.29,10.71-8.13,3.13-2.42,6.24-4.9,9.22-7.3l.53-.38a36.78,36.78,0,0,0,11.61-11.74,3.9,3.9,0,0,1,.28-.49,32.23,32.23,0,0,0,4.44-16.37c-4.5-4.82-11.43-6.31-11.51-6.34a5.73,5.73,0,0,1-.9-.25c-6.73-2.4-18.43,1.31-24,3.59-.73.3-1.34.57-1.84.8a6.49,6.49,0,0,1-5.52-11.75,73.25,73.25,0,0,1,7.95-3.1c7.37-2.43,18.41-4.9,27.35-1.92,2.64.62,13.36,3.56,20,12.62a6.44,6.44,0,0,1,1.2,3A43.49,43.49,0,0,1,333,497.79Z" transform="translate(-57.53 -222.05)"/><path class="cls-2" d="M337,547.61l-1.08,1.28c-1.84,2.13-5.05,5.72-9,9.42-6.07,5.74-13.85,11.75-20.83,13.09a6.31,6.31,0,0,1-1.22.12,6.56,6.56,0,0,1-2.94-.7c-8.46-4.29-20-13.07-23.39-24.15a21,21,0,0,1,.83-14.74,6.44,6.44,0,0,1,1.79-2.45l.08-.05c.21-.17.44-.32.66-.48l0,0A6.49,6.49,0,0,1,291.3,537a7.93,7.93,0,0,0-.5,1.57C289,546.9,300.68,555,305.65,558c3.16-1.37,7.18-4.44,11.09-8a116.14,116.14,0,0,0,9.1-9.35c.41-.5.83-1,1.2-1.43.06-.08.13-.15.2-.23,10.77-11.88,5.18-24.27,2.8-28.4l-3.41-1.43-4.93-2.07a6.49,6.49,0,0,1-3.47-8.5l.21-.45a3.9,3.9,0,0,1,.28-.49,6.48,6.48,0,0,1,8-2.53l6.32,2.66,3.88,1.63a6.45,6.45,0,0,1,2.75,2.18C345.64,509.87,352.72,530.11,337,547.61Z" transform="translate(-57.53 -222.05)"/><path class="cls-2" d="M606.39,363.46,540.23,248.87A27,27,0,0,0,503.37,239l-38.61,22.29a27,27,0,0,0-10.91,34.85c.27.58.56,1.14.88,1.71,0,.1.11.2.17.3l63,109.09,2.08,3.58,1.09,1.91a27,27,0,0,0,23.42,13.49,26.71,26.71,0,0,0,13.44-3.61l38.61-22.29A27,27,0,0,0,606.39,363.46ZM590,389.08l-38.61,22.29a14,14,0,0,1-19.12-5.14L466.13,291.65a14,14,0,0,1,5.12-19.12l38.62-22.29a13.78,13.78,0,0,1,7-1.88,14,14,0,0,1,12.14,7L595.15,370A14,14,0,0,1,590,389.08Z" transform="translate(-57.53 -222.05)"/><circle class="cls-2" cx="431.64" cy="69.46" r="10.98"/></svg>