<svg id="vision" xmlns="http://www.w3.org/2000/svg" viewBox="0 0 362.23 362.23"><defs><style>.cls-1{fill:#f7bf38;}.cls-2{fill:#fff;}</style></defs><title>icon_vision</title><path class="cls-1" d="M360.71,541.48a140.17,140.17,0,0,1-86.44-29.7l-19.06,19.06a5,5,0,0,1-3.54,1.47h0a5,5,0,0,1-3.53-1.47L230.7,513.4a5,5,0,0,1,0-7.07l19.07-19.06a140.58,140.58,0,0,1,11.45-185.84c54.83-54.83,144-54.83,198.89,0s54.83,144.06,0,198.89a140.12,140.12,0,0,1-93.43,41Q363.68,541.48,360.71,541.48Zm-86.8-41.41a5,5,0,0,1,3.21,1.16,129.88,129.88,0,0,0,175.92-8C504,442.32,504,359.44,453,308.5s-133.82-50.93-184.75,0h0a129.87,129.87,0,0,0-8,175.92,5,5,0,0,1-.3,6.74l-18.71,18.71,10.36,10.36,18.71-18.7A5,5,0,0,1,273.91,500.07ZM264.75,305h0Z" transform="translate(-139 -260.31)"/><path class="cls-1" d="M168.66,622.54a29.66,29.66,0,0,1-21-50.63l68-68h0a14,14,0,0,1,9.85-4.07,13.87,13.87,0,0,1,9.83,4.06l22.27,22.28a13.93,13.93,0,0,1,0,19.68l-68,68A29.48,29.48,0,0,1,168.66,622.54ZM222.74,511l-68,68a19.66,19.66,0,0,0,27.81,27.8l68-68a3.92,3.92,0,0,0,0-5.54L228.29,511a3.94,3.94,0,0,0-5.55,0Z" transform="translate(-139 -260.31)"/><path class="cls-1" d="M361,512.23A111.35,111.35,0,1,1,472.38,400.88,111.48,111.48,0,0,1,361,512.23Zm0-212.7A101.35,101.35,0,1,0,462.38,400.88,101.47,101.47,0,0,0,361,299.53Z" transform="translate(-139 -260.31)"/><path class="cls-2" d="M363.23,387.36a14.76,14.76,0,1,1-14.73,14.77A14.75,14.75,0,0,1,363.23,387.36Z" transform="translate(-139 -260.31)"/><path class="cls-2" d="M361.46,459c-42.22,0-73.45-53.22-74.76-55.48l-1.49-2.59,1.57-2.55c1.31-2.11,32.55-51.86,74.68-51.86s76.67,49.55,78.12,51.66l1.89,2.74-1.8,2.8C438.22,406,403.68,459,361.46,459ZM297,401.09c6.62,10.32,32.9,47.89,64.49,47.89s60.33-37.24,67.87-47.88c-7.67-10.09-36.25-44.6-67.87-44.6S303.7,391.29,297,401.09Z" transform="translate(-139 -260.31)"/><path class="cls-2" d="M363.22,437.56a35.45,35.45,0,1,1,35.45-35.42A35.45,35.45,0,0,1,363.22,437.56Zm0-62.89a27.45,27.45,0,1,0,27.45,27.47A27.46,27.46,0,0,0,363.22,374.67Z" transform="translate(-139 -260.31)"/></svg>