<?xml version="1.0" encoding="UTF-8" standalone="no"?>
<svg
   xmlns:dc="http://purl.org/dc/elements/1.1/"
   xmlns:cc="http://creativecommons.org/ns#"
   xmlns:rdf="http://www.w3.org/1999/02/22-rdf-syntax-ns#"
   xmlns:svg="http://www.w3.org/2000/svg"
   xmlns="http://www.w3.org/2000/svg"
   xmlns:sodipodi="http://sodipodi.sourceforge.net/DTD/sodipodi-0.dtd"
   xmlns:inkscape="http://www.inkscape.org/namespaces/inkscape"
   aria-hidden="true"
   focusable="false"
   role="img"
   viewBox="0 0 448 512"
   version="1.1"
   id="svg4"
   sodipodi:docname="whatsapp.svg"
   inkscape:version="0.92.4 5da689c313, 2019-01-14">
  <metadata
     id="metadata10">
    <rdf:RDF>
      <cc:Work
         rdf:about="">
        <dc:format>image/svg+xml</dc:format>
        <dc:type
           rdf:resource="http://purl.org/dc/dcmitype/StillImage" />
      </cc:Work>
    </rdf:RDF>
  </metadata>
  <defs
     id="defs8" />
  <sodipodi:namedview
     pagecolor="#ffffff"
     bordercolor="#666666"
     borderopacity="1"
     objecttolerance="10"
     gridtolerance="10"
     guidetolerance="10"
     inkscape:pageopacity="0"
     inkscape:pageshadow="2"
     inkscape:window-width="1920"
     inkscape:window-height="1040"
     id="namedview6"
     showgrid="false"
     inkscape:zoom="0.921875"
     inkscape:cx="243.73029"
     inkscape:cy="360.30453"
     inkscape:window-x="1920"
     inkscape:window-y="0"
     inkscape:window-maximized="1"
     inkscape:current-layer="svg4" />
  <path
     d="M 378.89298,99.111868 C 337.09444,57.213558 281.42954,34.169489 222.27313,34.169489 100.1695,34.169489 0.81066469,133.52832 0.81066469,255.63196 c 0,39.00532 10.17529831,77.11282 29.52832831,110.73124 L -1.0847413,481.08474 116.33027,450.25956 c 32.32154,17.65714 68.73317,26.93462 105.84309,26.93462 h 0.0998 c 122.00388,0 223.55739,-99.35883 223.55739,-221.46245 0,-59.15641 -25.13898,-114.72156 -66.93753,-156.619862 z M 222.27313,439.88474 c -33.11961,0 -65.54092,-8.87844 -93.7724,-25.63777 l -6.68378,-3.99031 -69.630985,18.25569 18.554961,-67.93512 -4.389344,-6.98303 C 47.896378,324.26538 38.219864,290.44746 38.219864,255.63196 c 0,-101.45375 82.599506,-184.053269 184.153016,-184.053269 49.18064,0 95.36852,19.153507 130.08427,53.969009 34.71573,34.81549 56.06392,81.00339 55.96416,130.18403 0,101.55349 -84.69444,184.15301 -186.14818,184.15301 z"
     class=""
     id="path2-3"
     style="fill:#ffc11f;fill-opacity:1;stroke-width:0.99757874"
     inkscape:connector-curvature="0"
     sodipodi:nodetypes="csscccsssccscccccssscs" />
  <path
     d="M 360.72421,119.53729 C 324.30267,83.028814 275.79855,62.949152 224.25206,62.949152 c -106.39613,0 -192.973367,86.577238 -192.973367,192.973368 0,33.98764 8.866343,67.19297 25.729782,96.48668 L 29.627119,452.37288 131.93777,425.51307 c 28.16368,15.38572 59.89128,23.46974 92.22736,23.46974 h 0.0869 c 106.3092,0 194.79879,-86.57724 194.79879,-192.97336 0,-51.54649 -21.90508,-99.96368 -58.32664,-136.47216 z M 224.25206,416.47288 c -28.85908,0 -57.10969,-7.73632 -81.70944,-22.33971 l -5.82398,-3.47699 -60.673604,15.90726 16.168039,-59.19589 -3.824697,-6.08474 C 72.307264,315.72688 63.875545,286.25932 63.875545,255.92252 c 0,-88.40266 71.973845,-160.376515 160.463435,-160.376515 42.854,0 83.10024,16.689585 113.35013,47.026395 30.24987,30.3368 48.85181,70.58305 48.76489,113.43705 0,88.48958 -73.79928,160.46343 -162.20194,160.46343 z"
     class=""
     id="path2"
     style="fill:#fffcff;fill-opacity:1;stroke-width:0.8692494"
     inkscape:connector-curvature="0"
     sodipodi:nodetypes="csscccsssccscccccssscs" />
  <path
     style="opacity:1;fill:#ffc11f;fill-opacity:1;stroke:none;stroke-width:40.95624924;stroke-linecap:round;stroke-linejoin:bevel;stroke-miterlimit:4;stroke-dasharray:none;stroke-dashoffset:0;stroke-opacity:1;paint-order:stroke fill markers"
     d="m 196.88585,425.69568 c -20.77441,-3.74895 -44.20669,-12.22763 -59.60321,-21.56666 -3.25479,-1.97423 -6.86457,-3.57489 -8.02174,-3.55702 -1.15719,0.0178 -19.55218,8.51536 -36.509932,14.36633 -16.937947,5.84413 -40.313328,13.80094 -40.565003,13.57402 -0.251677,-0.22692 9.303712,-25.19908 15.737621,-42.08691 l 12.794861,-33.58416 -4.267085,-6.93389 C 57.922409,315.79836 49.63541,286.85851 49.647476,252.30291 c 0.01019,-29.05546 4.885648,-50.97737 16.882971,-75.91147 5.877608,-12.21548 17.2111,-31.71542 16.127752,-26.96085 -3.157765,13.85866 -4.281934,41.78113 0.981118,57.44498 9.256004,27.54764 34.320423,63.82991 67.164813,97.22517 41.43731,42.13232 71.44576,61.51278 122.19368,78.9168 22.60599,7.75273 32.67985,9.54595 50.17276,8.93113 7.91219,-0.27811 36.62308,-15.78734 36.62308,-15.57228 0,0.21501 -25.11223,19.40888 -30.61476,22.93176 -19.47075,12.46575 -39.21401,19.42345 -61.95779,24.75042 -17.99697,4.21519 -51.70191,4.99972 -70.33525,1.63714 z"
     id="path842"
     inkscape:connector-curvature="0"
     sodipodi:nodetypes="cccscscscssssscssscc" />
  <path
     style="opacity:1;fill:#ffc11f;fill-opacity:1;stroke:none;stroke-width:40.88712311;stroke-linecap:round;stroke-linejoin:bevel;stroke-miterlimit:4;stroke-dasharray:none;stroke-dashoffset:0;stroke-opacity:1;paint-order:stroke fill markers"
     d="m 260.18219,315.74761 c -13.08024,-5.7746 -38.10532,-19.85381 -49.29904,-27.73585 -14.88538,-10.48152 -26.92885,-22.11908 -39.88481,-38.54061 -12.30543,-15.59696 -18.81902,-26.80479 -17.64151,-30.35546 0.42355,-1.27715 4.82354,-7.1417 9.77776,-13.03233 11.629,-13.82707 15.90772,-21.76941 15.04476,-27.92682 -1.54831,-11.04768 -29.26736,-71.76209 -33.59054,-73.57501 -1.28179,-0.53752 -4.98798,-0.61422 -8.22535,-0.032 -4.41043,1.72582 -28.23083,14.49901 -28.23083,14.49901 l 33.51132,-22.940674 c 34.46804,-23.595611 79.54564,-23.168498 119.73321,-15.029527 62.77516,12.713514 115.46382,58.454981 136.41177,118.425361 9.963,28.52232 11.44645,59.37628 4.28453,89.11221 -3.04373,12.63735 -12.42647,35.78421 -13.47897,34.15437 -0.98674,-1.52799 -51.49186,-35.04992 -63.04121,-39.38261 -12.19725,-4.57576 -13.36797,-4.17985 -24.15256,8.168 -5.08382,5.82073 -13.15377,14.41954 -17.93324,19.10846 -10.07381,9.88296 -11.63949,10.22477 -23.28529,5.08345 z"
     id="path844"
     inkscape:connector-curvature="0"
     sodipodi:nodetypes="sssccccccsssccssss" />
</svg>
